<?xml version="1.0" encoding="UTF-8" standalone="no"?>
<!DOCTYPE svg PUBLIC "-//W3C//DTD SVG 1.1//EN"
 "http://www.w3.org/Graphics/SVG/1.1/DTD/svg11.dtd">
<!-- Generated by graphviz version 2.43.0 (0)
 -->
<!-- Title: %3 Pages: 1 -->
<svg width="180pt" height="211pt"
 viewBox="0.00 0.00 180.00 211.00" xmlns="http://www.w3.org/2000/svg" xmlns:xlink="http://www.w3.org/1999/xlink">
<g id="graph0" class="graph" transform="scale(1 1) rotate(0) translate(4 207)">
<title>%3</title>
<polygon fill="white" stroke="transparent" points="-4,4 -4,-207 176,-207 176,4 -4,4"/>
<text text-anchor="middle" x="86" y="-7.8" font-family="Times,serif" font-size="14.00">Blocked by</text>
<!-- 1 -->
<g id="node1" class="node">
<title>1</title>
<ellipse fill="none" stroke="black" cx="137" cy="-113" rx="27" ry="18"/>
<text text-anchor="middle" x="137" y="-109.3" font-family="Times,serif" font-size="14.00">1</text>
</g>
<!-- 2 -->
<g id="node2" class="node">
<title>2</title>
<ellipse fill="none" stroke="black" cx="145" cy="-41" rx="27" ry="18"/>
<text text-anchor="middle" x="145" y="-37.3" font-family="Times,serif" font-size="14.00">2</text>
</g>
<!-- 1&#45;&gt;2 -->
<g id="edge1" class="edge">
<title>1&#45;&gt;2</title>
<path fill="none" stroke="black" d="M138.98,-94.7C139.86,-86.98 140.92,-77.71 141.9,-69.11"/>
<polygon fill="black" stroke="black" points="145.39,-69.44 143.05,-59.1 138.43,-68.64 145.39,-69.44"/>
</g>
<!-- 3 -->
<g id="node3" class="node">
<title>3</title>
<ellipse fill="none" stroke="black" cx="73" cy="-41" rx="27" ry="18"/>
<text text-anchor="middle" x="73" y="-37.3" font-family="Times,serif" font-size="14.00">3</text>
</g>
<!-- 1&#45;&gt;3 -->
<g id="edge2" class="edge">
<title>1&#45;&gt;3</title>
<path fill="none" stroke="black" d="M123.43,-97.15C114.69,-87.6 103.17,-74.99 93.34,-64.25"/>
<polygon fill="black" stroke="black" points="95.88,-61.84 86.55,-56.82 90.72,-66.57 95.88,-61.84"/>
</g>
<!-- 4 -->
<g id="node4" class="node">
<title>4</title>
<ellipse fill="none" stroke="black" cx="27" cy="-113" rx="27" ry="18"/>
<text text-anchor="middle" x="27" y="-109.3" font-family="Times,serif" font-size="14.00">4</text>
</g>
<!-- 4&#45;&gt;3 -->
<g id="edge5" class="edge">
<title>4&#45;&gt;3</title>
<path fill="none" stroke="black" d="M37.44,-96.12C43.2,-87.34 50.48,-76.26 56.96,-66.42"/>
<polygon fill="black" stroke="black" points="60.04,-68.1 62.6,-57.82 54.19,-64.26 60.04,-68.1"/>
</g>
<!-- 5 -->
<g id="node5" class="node">
<title>5</title>
<ellipse fill="none" stroke="black" cx="109" cy="-185" rx="27" ry="18"/>
<text text-anchor="middle" x="109" y="-181.3" font-family="Times,serif" font-size="14.00">5</text>
</g>
<!-- 5&#45;&gt;1 -->
<g id="edge3" class="edge">
<title>5&#45;&gt;1</title>
<path fill="none" stroke="black" d="M115.64,-167.41C118.91,-159.22 122.94,-149.14 126.62,-139.95"/>
<polygon fill="black" stroke="black" points="129.95,-141.05 130.41,-130.47 123.45,-138.45 129.95,-141.05"/>
</g>
<!-- 5&#45;&gt;3 -->
<g id="edge4" class="edge">
<title>5&#45;&gt;3</title>
<path fill="none" stroke="black" d="M104.73,-167.15C98.56,-142.81 87.09,-97.57 79.76,-68.67"/>
<polygon fill="black" stroke="black" points="83.12,-67.66 77.27,-58.82 76.33,-69.38 83.12,-67.66"/>
</g>
</g>
</svg>
